# xmcd
#
# Track frame offsets:
#        150
#        11783
#        27601
#        38093
#        52927
#        65972
#        76033
#        93293
#        108587
#        132940
#        158670
#        172720
#
# Disc length: 2585 seconds
#
# Revision: 0
# Processed by: cddbd v1.5.1PL2 Copyright (c) Steve Scherf et al.
# Submitted via: ExactAudioCopy v0.95a5
#
DISCID=900a170c
DTITLE=Brokenspace - Brokenspace
DYEAR=2006
DGENRE=Rock
TTITLE0=Summer Breaker
TTITLE1=Parasite Me
TTITLE2=Letter To Reply
TTITLE3=Destination
TTITLE4=Salad Days
TTITLE5=Bread
TTITLE6=Miserable
TTITLE7=Fallen Flower
TTITLE8=Rebelation
TTITLE9=Feeder
TTITLE10=Giant's Stride
TTITLE11=Undo All
EXTD=
EXTT0=
EXTT1=
EXTT2=
EXTT3=
EXTT4=
EXTT5=
EXTT6=
EXTT7=
EXTT8=
EXTT9=
EXTT10=
EXTT11=
PLAYORDER=
